<svg width="1825" height="1050" viewBox="0 0 1825 1050" fill="none" xmlns="http://www.w3.org/2000/svg">
<g opacity="0.5" filter="url(#filter0_f_63_6)">
<path d="M653.274 505H639.927L660.263 446.091H676.314L696.621 505H683.275L668.519 459.553H668.059L653.274 505ZM652.44 481.845H683.965V491.567H652.44V481.845ZM720.595 479.457V505H708.342V460.818H720.02V468.613H720.538C721.516 466.044 723.155 464.011 725.456 462.515C727.758 461 730.548 460.243 733.827 460.243C736.895 460.243 739.57 460.914 741.852 462.256C744.134 463.599 745.908 465.516 747.173 468.009C748.439 470.483 749.072 473.436 749.072 476.869V505H736.818V479.055C736.837 476.351 736.147 474.241 734.747 472.727C733.347 471.192 731.42 470.425 728.966 470.425C727.317 470.425 725.859 470.78 724.593 471.49C723.347 472.199 722.369 473.235 721.66 474.596C720.969 475.939 720.614 477.559 720.595 479.457ZM763.589 505V460.818H775.843V505H763.589ZM769.745 455.123C767.923 455.123 766.36 454.519 765.056 453.311C763.772 452.083 763.129 450.616 763.129 448.91C763.129 447.222 763.772 445.775 765.056 444.566C766.36 443.339 767.923 442.725 769.745 442.725C771.567 442.725 773.12 443.339 774.405 444.566C775.709 445.775 776.361 447.222 776.361 448.91C776.361 450.616 775.709 452.083 774.405 453.311C773.12 454.519 771.567 455.123 769.745 455.123ZM827.279 473.417L816.061 474.107C815.87 473.148 815.457 472.286 814.824 471.518C814.192 470.732 813.358 470.109 812.322 469.649C811.306 469.169 810.088 468.93 808.669 468.93C806.771 468.93 805.169 469.332 803.865 470.138C802.561 470.924 801.909 471.979 801.909 473.302C801.909 474.357 802.331 475.248 803.175 475.977C804.019 476.706 805.467 477.29 807.518 477.732L815.515 479.342C819.81 480.224 823.013 481.643 825.122 483.599C827.231 485.555 828.286 488.125 828.286 491.308C828.286 494.204 827.433 496.745 825.726 498.931C824.039 501.117 821.718 502.824 818.765 504.051C815.831 505.259 812.447 505.863 808.611 505.863C802.763 505.863 798.103 504.645 794.632 502.21C791.18 499.755 789.157 496.419 788.563 492.2L800.615 491.567C800.979 493.35 801.861 494.712 803.261 495.652C804.661 496.572 806.454 497.032 808.64 497.032C810.788 497.032 812.514 496.62 813.818 495.795C815.141 494.952 815.812 493.868 815.831 492.545C815.812 491.433 815.342 490.522 814.422 489.812C813.501 489.084 812.082 488.528 810.165 488.144L802.513 486.62C798.199 485.757 794.987 484.261 792.877 482.132C790.787 480.004 789.742 477.29 789.742 473.992C789.742 471.154 790.509 468.709 792.043 466.657C793.597 464.605 795.773 463.023 798.573 461.911C801.392 460.799 804.69 460.243 808.468 460.243C814.048 460.243 818.439 461.422 821.642 463.781C824.863 466.14 826.742 469.352 827.279 473.417ZM840.862 505V460.818H853.116V505H840.862ZM847.018 455.123C845.196 455.123 843.633 454.519 842.329 453.311C841.044 452.083 840.402 450.616 840.402 448.91C840.402 447.222 841.044 445.775 842.329 444.566C843.633 443.339 845.196 442.725 847.018 442.725C848.839 442.725 850.393 443.339 851.677 444.566C852.981 445.775 853.633 447.222 853.633 448.91C853.633 450.616 852.981 452.083 851.677 453.311C850.393 454.519 848.839 455.123 847.018 455.123ZM887.754 505.863C883.286 505.863 879.422 504.914 876.162 503.015C872.921 501.098 870.419 498.432 868.654 495.019C866.89 491.586 866.008 487.607 866.008 483.082C866.008 478.518 866.89 474.529 868.654 471.116C870.419 467.683 872.921 465.018 876.162 463.119C879.422 461.202 883.286 460.243 887.754 460.243C892.222 460.243 896.076 461.202 899.317 463.119C902.577 465.018 905.089 467.683 906.853 471.116C908.617 474.529 909.5 478.518 909.5 483.082C909.5 487.607 908.617 491.586 906.853 495.019C905.089 498.432 902.577 501.098 899.317 503.015C896.076 504.914 892.222 505.863 887.754 505.863ZM887.811 496.371C889.844 496.371 891.541 495.795 892.903 494.645C894.264 493.475 895.29 491.884 895.98 489.87C896.69 487.857 897.045 485.565 897.045 482.995C897.045 480.426 896.69 478.134 895.98 476.121C895.29 474.107 894.264 472.516 892.903 471.346C891.541 470.176 889.844 469.591 887.811 469.591C885.76 469.591 884.034 470.176 882.634 471.346C881.253 472.516 880.208 474.107 879.499 476.121C878.808 478.134 878.463 480.426 878.463 482.995C878.463 485.565 878.808 487.857 879.499 489.87C880.208 491.884 881.253 493.475 882.634 494.645C884.034 495.795 885.76 496.371 887.811 496.371ZM995.438 446.091V505H984.68L959.051 467.923H958.619V505H946.164V446.091H957.095L982.522 483.139H983.04V446.091H995.438ZM1021.46 492.286L1021.49 477.588H1023.27L1037.42 460.818H1051.49L1032.48 483.024H1029.57L1021.46 492.286ZM1010.36 505V446.091H1022.61V505H1010.36ZM1037.97 505L1024.97 485.757L1033.14 477.099L1052.32 505H1037.97ZM1090.7 486.188V460.818H1102.95V505H1091.18V496.975H1090.72C1089.73 499.564 1088.07 501.644 1085.75 503.217C1083.45 504.789 1080.64 505.575 1077.32 505.575C1074.37 505.575 1071.77 504.904 1069.52 503.562C1067.28 502.219 1065.53 500.311 1064.26 497.838C1063.01 495.364 1062.38 492.401 1062.36 488.95V460.818H1074.62V486.763C1074.64 489.371 1075.33 491.433 1076.72 492.948C1078.1 494.463 1079.95 495.22 1082.27 495.22C1083.74 495.22 1085.12 494.885 1086.41 494.213C1087.69 493.523 1088.73 492.507 1089.52 491.164C1090.32 489.822 1090.71 488.163 1090.7 486.188ZM1129.86 446.091V505H1117.61V446.091H1129.86ZM1157.14 505.834C1154.32 505.834 1151.81 505.345 1149.6 504.367C1147.4 503.37 1145.65 501.903 1144.37 499.966C1143.1 498.01 1142.47 495.575 1142.47 492.66C1142.47 490.206 1142.92 488.144 1143.82 486.476C1144.72 484.808 1145.95 483.465 1147.5 482.449C1149.06 481.433 1150.82 480.665 1152.79 480.148C1154.79 479.63 1156.88 479.266 1159.07 479.055C1161.63 478.786 1163.71 478.537 1165.28 478.307C1166.85 478.058 1167.99 477.693 1168.7 477.214C1169.41 476.734 1169.77 476.025 1169.77 475.085V474.913C1169.77 473.091 1169.19 471.681 1168.04 470.684C1166.91 469.687 1165.3 469.189 1163.21 469.189C1161 469.189 1159.25 469.678 1157.94 470.656C1156.64 471.614 1155.78 472.822 1155.35 474.28L1144.02 473.359C1144.6 470.675 1145.73 468.354 1147.42 466.398C1149.1 464.423 1151.28 462.908 1153.95 461.854C1156.63 460.78 1159.74 460.243 1163.26 460.243C1165.72 460.243 1168.07 460.531 1170.31 461.106C1172.57 461.681 1174.58 462.573 1176.32 463.781C1178.09 464.989 1179.48 466.542 1180.49 468.441C1181.51 470.32 1182.02 472.573 1182.02 475.2V505H1170.4V498.873H1170.05C1169.34 500.254 1168.39 501.472 1167.21 502.526C1166.02 503.562 1164.59 504.377 1162.92 504.971C1161.25 505.547 1159.32 505.834 1157.14 505.834ZM1160.65 497.377C1162.45 497.377 1164.04 497.023 1165.42 496.313C1166.8 495.585 1167.89 494.607 1168.67 493.379C1169.46 492.152 1169.85 490.762 1169.85 489.208V484.52C1169.47 484.769 1168.94 484.999 1168.27 485.21C1167.62 485.402 1166.88 485.584 1166.05 485.757C1165.23 485.91 1164.41 486.054 1163.58 486.188C1162.76 486.303 1162.01 486.409 1161.34 486.505C1159.9 486.716 1158.64 487.051 1157.57 487.511C1156.5 487.972 1155.66 488.595 1155.07 489.381C1154.47 490.148 1154.18 491.107 1154.18 492.257C1154.18 493.926 1154.78 495.201 1155.99 496.083C1157.21 496.946 1158.77 497.377 1160.65 497.377Z" fill="white"/>
</g>
<path d="M653.274 505H639.927L660.263 446.091H676.314L696.621 505H683.275L668.519 459.553H668.059L653.274 505ZM652.44 481.845H683.965V491.567H652.44V481.845ZM720.595 479.457V505H708.342V460.818H720.02V468.613H720.538C721.516 466.044 723.155 464.011 725.456 462.515C727.758 461 730.548 460.243 733.827 460.243C736.895 460.243 739.57 460.914 741.852 462.256C744.134 463.599 745.908 465.516 747.173 468.009C748.439 470.483 749.072 473.436 749.072 476.869V505H736.818V479.055C736.837 476.351 736.147 474.241 734.747 472.727C733.347 471.192 731.42 470.425 728.966 470.425C727.317 470.425 725.859 470.78 724.593 471.49C723.347 472.199 722.369 473.235 721.66 474.596C720.969 475.939 720.614 477.559 720.595 479.457ZM763.589 505V460.818H775.843V505H763.589ZM769.745 455.123C767.923 455.123 766.36 454.519 765.056 453.311C763.772 452.083 763.129 450.616 763.129 448.91C763.129 447.222 763.772 445.775 765.056 444.566C766.36 443.339 767.923 442.725 769.745 442.725C771.567 442.725 773.12 443.339 774.405 444.566C775.709 445.775 776.361 447.222 776.361 448.91C776.361 450.616 775.709 452.083 774.405 453.311C773.12 454.519 771.567 455.123 769.745 455.123ZM827.279 473.417L816.061 474.107C815.87 473.148 815.457 472.286 814.824 471.518C814.192 470.732 813.358 470.109 812.322 469.649C811.306 469.169 810.088 468.93 808.669 468.93C806.771 468.93 805.169 469.332 803.865 470.138C802.561 470.924 801.909 471.979 801.909 473.302C801.909 474.357 802.331 475.248 803.175 475.977C804.019 476.706 805.467 477.29 807.518 477.732L815.515 479.342C819.81 480.224 823.013 481.643 825.122 483.599C827.231 485.555 828.286 488.125 828.286 491.308C828.286 494.204 827.433 496.745 825.726 498.931C824.039 501.117 821.718 502.824 818.765 504.051C815.831 505.259 812.447 505.863 808.611 505.863C802.763 505.863 798.103 504.645 794.632 502.21C791.18 499.755 789.157 496.419 788.563 492.2L800.615 491.567C800.979 493.35 801.861 494.712 803.261 495.652C804.661 496.572 806.454 497.032 808.64 497.032C810.788 497.032 812.514 496.62 813.818 495.795C815.141 494.952 815.812 493.868 815.831 492.545C815.812 491.433 815.342 490.522 814.422 489.812C813.501 489.084 812.082 488.528 810.165 488.144L802.513 486.62C798.199 485.757 794.987 484.261 792.877 482.132C790.787 480.004 789.742 477.29 789.742 473.992C789.742 471.154 790.509 468.709 792.043 466.657C793.597 464.605 795.773 463.023 798.573 461.911C801.392 460.799 804.69 460.243 808.468 460.243C814.048 460.243 818.439 461.422 821.642 463.781C824.863 466.14 826.742 469.352 827.279 473.417ZM840.862 505V460.818H853.116V505H840.862ZM847.018 455.123C845.196 455.123 843.633 454.519 842.329 453.311C841.044 452.083 840.402 450.616 840.402 448.91C840.402 447.222 841.044 445.775 842.329 444.566C843.633 443.339 845.196 442.725 847.018 442.725C848.839 442.725 850.393 443.339 851.677 444.566C852.981 445.775 853.633 447.222 853.633 448.91C853.633 450.616 852.981 452.083 851.677 453.311C850.393 454.519 848.839 455.123 847.018 455.123ZM887.754 505.863C883.286 505.863 879.422 504.914 876.162 503.015C872.921 501.098 870.419 498.432 868.654 495.019C866.89 491.586 866.008 487.607 866.008 483.082C866.008 478.518 866.89 474.529 868.654 471.116C870.419 467.683 872.921 465.018 876.162 463.119C879.422 461.202 883.286 460.243 887.754 460.243C892.222 460.243 896.076 461.202 899.317 463.119C902.577 465.018 905.089 467.683 906.853 471.116C908.617 474.529 909.5 478.518 909.5 483.082C909.5 487.607 908.617 491.586 906.853 495.019C905.089 498.432 902.577 501.098 899.317 503.015C896.076 504.914 892.222 505.863 887.754 505.863ZM887.811 496.371C889.844 496.371 891.541 495.795 892.903 494.645C894.264 493.475 895.29 491.884 895.98 489.87C896.69 487.857 897.045 485.565 897.045 482.995C897.045 480.426 896.69 478.134 895.98 476.121C895.29 474.107 894.264 472.516 892.903 471.346C891.541 470.176 889.844 469.591 887.811 469.591C885.76 469.591 884.034 470.176 882.634 471.346C881.253 472.516 880.208 474.107 879.499 476.121C878.808 478.134 878.463 480.426 878.463 482.995C878.463 485.565 878.808 487.857 879.499 489.87C880.208 491.884 881.253 493.475 882.634 494.645C884.034 495.795 885.76 496.371 887.811 496.371ZM995.438 446.091V505H984.68L959.051 467.923H958.619V505H946.164V446.091H957.095L982.522 483.139H983.04V446.091H995.438ZM1021.46 492.286L1021.49 477.588H1023.27L1037.42 460.818H1051.49L1032.48 483.024H1029.57L1021.46 492.286ZM1010.36 505V446.091H1022.61V505H1010.36ZM1037.97 505L1024.97 485.757L1033.14 477.099L1052.32 505H1037.97ZM1090.7 486.188V460.818H1102.95V505H1091.18V496.975H1090.72C1089.73 499.564 1088.07 501.644 1085.75 503.217C1083.45 504.789 1080.64 505.575 1077.32 505.575C1074.37 505.575 1071.77 504.904 1069.52 503.562C1067.28 502.219 1065.53 500.311 1064.26 497.838C1063.01 495.364 1062.38 492.401 1062.36 488.95V460.818H1074.62V486.763C1074.64 489.371 1075.33 491.433 1076.72 492.948C1078.1 494.463 1079.95 495.22 1082.27 495.22C1083.74 495.22 1085.12 494.885 1086.41 494.213C1087.69 493.523 1088.73 492.507 1089.52 491.164C1090.32 489.822 1090.71 488.163 1090.7 486.188ZM1129.86 446.091V505H1117.61V446.091H1129.86ZM1157.14 505.834C1154.32 505.834 1151.81 505.345 1149.6 504.367C1147.4 503.37 1145.65 501.903 1144.37 499.966C1143.1 498.01 1142.47 495.575 1142.47 492.66C1142.47 490.206 1142.92 488.144 1143.82 486.476C1144.72 484.808 1145.95 483.465 1147.5 482.449C1149.06 481.433 1150.82 480.665 1152.79 480.148C1154.79 479.63 1156.88 479.266 1159.07 479.055C1161.63 478.786 1163.71 478.537 1165.28 478.307C1166.85 478.058 1167.99 477.693 1168.7 477.214C1169.41 476.734 1169.77 476.025 1169.77 475.085V474.913C1169.77 473.091 1169.19 471.681 1168.04 470.684C1166.91 469.687 1165.3 469.189 1163.21 469.189C1161 469.189 1159.25 469.678 1157.94 470.656C1156.64 471.614 1155.78 472.822 1155.35 474.28L1144.02 473.359C1144.6 470.675 1145.73 468.354 1147.42 466.398C1149.1 464.423 1151.28 462.908 1153.95 461.854C1156.63 460.78 1159.74 460.243 1163.26 460.243C1165.72 460.243 1168.07 460.531 1170.31 461.106C1172.57 461.681 1174.58 462.573 1176.32 463.781C1178.09 464.989 1179.48 466.542 1180.49 468.441C1181.51 470.32 1182.02 472.573 1182.02 475.2V505H1170.4V498.873H1170.05C1169.34 500.254 1168.39 501.472 1167.21 502.526C1166.02 503.562 1164.59 504.377 1162.92 504.971C1161.25 505.547 1159.32 505.834 1157.14 505.834ZM1160.65 497.377C1162.45 497.377 1164.04 497.023 1165.42 496.313C1166.8 495.585 1167.89 494.607 1168.67 493.379C1169.46 492.152 1169.85 490.762 1169.85 489.208V484.52C1169.47 484.769 1168.94 484.999 1168.27 485.21C1167.62 485.402 1166.88 485.584 1166.05 485.757C1165.23 485.91 1164.41 486.054 1163.58 486.188C1162.76 486.303 1162.01 486.409 1161.34 486.505C1159.9 486.716 1158.64 487.051 1157.57 487.511C1156.5 487.972 1155.66 488.595 1155.07 489.381C1154.47 490.148 1154.18 491.107 1154.18 492.257C1154.18 493.926 1154.78 495.201 1155.99 496.083C1157.21 496.946 1158.77 497.377 1160.65 497.377Z" fill="white"/>
<path opacity="0.5" d="M565.145 544.364C565.038 543.464 564.606 542.766 563.849 542.268C563.091 541.771 562.162 541.523 561.061 541.523C560.256 541.523 559.552 541.653 558.948 541.913C558.35 542.174 557.883 542.532 557.545 542.988C557.214 543.443 557.048 543.961 557.048 544.541C557.048 545.027 557.164 545.444 557.395 545.793C557.631 546.136 557.933 546.423 558.3 546.654C558.667 546.879 559.052 547.065 559.454 547.213C559.857 547.355 560.227 547.471 560.564 547.56L562.411 548.057C562.884 548.181 563.411 548.353 563.991 548.572C564.577 548.791 565.136 549.09 565.669 549.468C566.207 549.841 566.651 550.321 567 550.907C567.35 551.493 567.524 552.212 567.524 553.064C567.524 554.046 567.267 554.934 566.752 555.727C566.243 556.52 565.497 557.151 564.515 557.618C563.538 558.086 562.351 558.32 560.955 558.32C559.652 558.32 558.525 558.109 557.572 557.689C556.625 557.269 555.879 556.683 555.335 555.931C554.796 555.18 554.491 554.307 554.42 553.312H556.693C556.752 553.999 556.983 554.567 557.386 555.017C557.794 555.461 558.309 555.792 558.93 556.011C559.558 556.224 560.232 556.331 560.955 556.331C561.795 556.331 562.55 556.195 563.218 555.923C563.887 555.644 564.417 555.26 564.808 554.768C565.198 554.271 565.393 553.691 565.393 553.028C565.393 552.425 565.225 551.933 564.887 551.555C564.55 551.176 564.106 550.868 563.556 550.631C563.005 550.395 562.411 550.187 561.771 550.01L559.534 549.371C558.114 548.962 556.989 548.379 556.161 547.622C555.332 546.864 554.918 545.873 554.918 544.648C554.918 543.63 555.193 542.742 555.743 541.984C556.3 541.221 557.045 540.629 557.98 540.209C558.922 539.783 559.972 539.57 561.132 539.57C562.304 539.57 563.346 539.78 564.257 540.2C565.169 540.614 565.891 541.182 566.423 541.904C566.962 542.627 567.246 543.446 567.276 544.364H565.145ZM577.9 558.284C576.669 558.284 575.589 557.991 574.659 557.405C573.736 556.819 573.014 556 572.493 554.946C571.978 553.893 571.721 552.661 571.721 551.253C571.721 549.832 571.978 548.592 572.493 547.533C573.014 546.474 573.736 545.651 574.659 545.065C575.589 544.479 576.669 544.186 577.9 544.186C579.131 544.186 580.208 544.479 581.131 545.065C582.061 545.651 582.783 546.474 583.297 547.533C583.818 548.592 584.079 549.832 584.079 551.253C584.079 552.661 583.818 553.893 583.297 554.946C582.783 556 582.061 556.819 581.131 557.405C580.208 557.991 579.131 558.284 577.9 558.284ZM577.9 556.402C578.835 556.402 579.604 556.162 580.208 555.683C580.812 555.203 581.259 554.573 581.549 553.792C581.839 553.011 581.984 552.164 581.984 551.253C581.984 550.341 581.839 549.492 581.549 548.705C581.259 547.918 580.812 547.281 580.208 546.796C579.604 546.311 578.835 546.068 577.9 546.068C576.965 546.068 576.195 546.311 575.592 546.796C574.988 547.281 574.541 547.918 574.251 548.705C573.961 549.492 573.816 550.341 573.816 551.253C573.816 552.164 573.961 553.011 574.251 553.792C574.541 554.573 574.988 555.203 575.592 555.683C576.195 556.162 576.965 556.402 577.9 556.402ZM594.849 544.364V546.139H587.499V544.364H594.849ZM589.7 558V542.482C589.7 541.7 589.884 541.049 590.251 540.528C590.618 540.008 591.094 539.617 591.68 539.357C592.266 539.096 592.884 538.966 593.536 538.966C594.05 538.966 594.471 539.007 594.796 539.09C595.122 539.173 595.364 539.25 595.524 539.321L594.92 541.132C594.814 541.097 594.666 541.052 594.477 540.999C594.293 540.946 594.05 540.919 593.749 540.919C593.056 540.919 592.556 541.094 592.248 541.443C591.946 541.792 591.795 542.304 591.795 542.979V558H589.7ZM605.216 544.364V546.139H598.149V544.364H605.216ZM600.209 541.097H602.304V554.094C602.304 554.686 602.39 555.129 602.562 555.425C602.739 555.715 602.964 555.911 603.236 556.011C603.515 556.106 603.808 556.153 604.115 556.153C604.346 556.153 604.536 556.142 604.684 556.118C604.831 556.088 604.95 556.065 605.039 556.047L605.465 557.929C605.323 557.982 605.124 558.036 604.87 558.089C604.615 558.148 604.293 558.178 603.902 558.178C603.31 558.178 602.73 558.05 602.162 557.796C601.6 557.541 601.132 557.154 600.759 556.633C600.393 556.112 600.209 555.455 600.209 554.662V541.097ZM612.957 558L608.802 544.364H611.004L613.952 554.804H614.094L617.006 544.364H619.243L622.119 554.768H622.261L625.209 544.364H627.41L623.256 558H621.196L618.213 547.524H618L615.017 558H612.957ZM635.693 558.32C634.829 558.32 634.045 558.157 633.34 557.831C632.636 557.5 632.077 557.023 631.663 556.402C631.248 555.775 631.041 555.017 631.041 554.129C631.041 553.348 631.195 552.715 631.503 552.229C631.811 551.738 632.222 551.353 632.737 551.075C633.252 550.797 633.82 550.59 634.441 550.454C635.069 550.312 635.699 550.199 636.332 550.116C637.161 550.01 637.833 549.93 638.348 549.877C638.868 549.818 639.247 549.72 639.484 549.584C639.727 549.448 639.848 549.211 639.848 548.874V548.803C639.848 547.927 639.608 547.246 639.129 546.761C638.655 546.275 637.936 546.033 636.972 546.033C635.971 546.033 635.187 546.252 634.619 546.69C634.051 547.128 633.651 547.595 633.42 548.092L631.432 547.382C631.787 546.554 632.26 545.908 632.852 545.447C633.45 544.979 634.101 544.654 634.805 544.47C635.516 544.281 636.214 544.186 636.9 544.186C637.338 544.186 637.842 544.239 638.41 544.346C638.984 544.446 639.537 544.657 640.07 544.976C640.608 545.296 641.055 545.778 641.41 546.423C641.766 547.068 641.943 547.933 641.943 549.016V558H639.848V556.153H639.741C639.599 556.449 639.363 556.766 639.031 557.103C638.7 557.441 638.259 557.728 637.708 557.964C637.158 558.201 636.486 558.32 635.693 558.32ZM636.013 556.438C636.841 556.438 637.54 556.275 638.108 555.949C638.682 555.624 639.114 555.203 639.404 554.689C639.7 554.174 639.848 553.632 639.848 553.064V551.146C639.759 551.253 639.564 551.35 639.262 551.439C638.966 551.522 638.623 551.596 638.232 551.661C637.847 551.72 637.472 551.774 637.105 551.821C636.744 551.862 636.451 551.898 636.226 551.928C635.681 551.999 635.172 552.114 634.699 552.274C634.231 552.428 633.852 552.661 633.562 552.975C633.278 553.283 633.136 553.703 633.136 554.236C633.136 554.964 633.406 555.514 633.944 555.887C634.489 556.254 635.178 556.438 636.013 556.438ZM647.267 558V544.364H649.291V546.423H649.433C649.682 545.749 650.132 545.201 650.783 544.781C651.434 544.361 652.168 544.151 652.985 544.151C653.138 544.151 653.331 544.154 653.562 544.159C653.792 544.165 653.967 544.174 654.085 544.186V546.317C654.014 546.299 653.852 546.272 653.597 546.237C653.349 546.195 653.085 546.175 652.807 546.175C652.144 546.175 651.552 546.314 651.031 546.592C650.517 546.864 650.108 547.243 649.806 547.728C649.51 548.208 649.362 548.755 649.362 549.371V558H647.267ZM663.371 558.284C662.057 558.284 660.924 557.994 659.971 557.414C659.024 556.828 658.293 556.011 657.778 554.964C657.269 553.91 657.015 552.685 657.015 551.288C657.015 549.892 657.269 548.661 657.778 547.595C658.293 546.524 659.009 545.689 659.927 545.092C660.85 544.488 661.927 544.186 663.158 544.186C663.868 544.186 664.57 544.304 665.262 544.541C665.955 544.778 666.585 545.163 667.153 545.695C667.721 546.222 668.174 546.92 668.512 547.79C668.849 548.661 669.018 549.732 669.018 551.004V551.892H658.506V550.081H666.887C666.887 549.312 666.733 548.625 666.425 548.021C666.123 547.418 665.691 546.941 665.129 546.592C664.573 546.243 663.916 546.068 663.158 546.068C662.324 546.068 661.602 546.275 660.992 546.69C660.388 547.098 659.924 547.631 659.598 548.288C659.273 548.945 659.11 549.649 659.11 550.401V551.608C659.11 552.638 659.287 553.511 659.643 554.227C660.004 554.937 660.504 555.479 661.143 555.852C661.782 556.219 662.525 556.402 663.371 556.402C663.922 556.402 664.419 556.325 664.863 556.171C665.313 556.011 665.7 555.775 666.026 555.461C666.351 555.141 666.603 554.745 666.78 554.271L668.805 554.839C668.591 555.526 668.233 556.13 667.73 556.651C667.227 557.165 666.606 557.568 665.866 557.858C665.126 558.142 664.295 558.284 663.371 558.284ZM682.52 558V539.818H693.493V541.771H684.722V547.915H692.925V549.868H684.722V556.047H693.635V558H682.52ZM700.773 549.797V558H698.677V544.364H700.702V546.494H700.879C701.199 545.802 701.684 545.246 702.335 544.825C702.986 544.399 703.827 544.186 704.856 544.186C705.78 544.186 706.588 544.375 707.28 544.754C707.972 545.127 708.511 545.695 708.896 546.459C709.28 547.216 709.473 548.175 709.473 549.335V558H707.378V549.477C707.378 548.406 707.099 547.571 706.543 546.974C705.987 546.37 705.223 546.068 704.253 546.068C703.584 546.068 702.986 546.213 702.459 546.503C701.939 546.793 701.527 547.216 701.225 547.773C700.923 548.329 700.773 549.004 700.773 549.797ZM720.306 563.398C719.294 563.398 718.424 563.268 717.696 563.007C716.968 562.753 716.361 562.415 715.876 561.995C715.396 561.581 715.014 561.137 714.73 560.663L716.399 559.491C716.589 559.74 716.829 560.024 717.119 560.344C717.409 560.669 717.805 560.95 718.308 561.187C718.817 561.43 719.483 561.551 720.306 561.551C721.407 561.551 722.315 561.285 723.031 560.752C723.747 560.219 724.105 559.385 724.105 558.249V555.479H723.928C723.774 555.727 723.555 556.035 723.271 556.402C722.993 556.763 722.59 557.086 722.063 557.37C721.543 557.648 720.838 557.787 719.951 557.787C718.85 557.787 717.861 557.527 716.985 557.006C716.115 556.485 715.426 555.727 714.917 554.733C714.414 553.739 714.162 552.531 714.162 551.111C714.162 549.714 714.408 548.498 714.899 547.462C715.39 546.42 716.074 545.615 716.95 545.047C717.826 544.473 718.838 544.186 719.986 544.186C720.874 544.186 721.578 544.334 722.099 544.63C722.626 544.92 723.028 545.251 723.306 545.624C723.59 545.991 723.809 546.293 723.963 546.53H724.176V544.364H726.201V558.391C726.201 559.562 725.934 560.515 725.402 561.249C724.875 561.989 724.165 562.531 723.271 562.874C722.383 563.223 721.395 563.398 720.306 563.398ZM720.235 555.905C721.075 555.905 721.785 555.712 722.365 555.328C722.945 554.943 723.386 554.39 723.688 553.668C723.99 552.946 724.141 552.081 724.141 551.075C724.141 550.093 723.993 549.226 723.697 548.474C723.401 547.722 722.963 547.134 722.383 546.707C721.803 546.281 721.087 546.068 720.235 546.068C719.347 546.068 718.607 546.293 718.015 546.743C717.429 547.193 716.988 547.796 716.692 548.554C716.402 549.312 716.257 550.152 716.257 551.075C716.257 552.022 716.405 552.86 716.701 553.588C717.003 554.31 717.447 554.878 718.033 555.292C718.625 555.701 719.359 555.905 720.235 555.905ZM731.536 558V544.364H733.631V558H731.536ZM732.601 542.091C732.193 542.091 731.841 541.952 731.545 541.674C731.255 541.395 731.11 541.061 731.11 540.67C731.11 540.28 731.255 539.945 731.545 539.667C731.841 539.389 732.193 539.25 732.601 539.25C733.009 539.25 733.359 539.389 733.649 539.667C733.945 539.945 734.093 540.28 734.093 540.67C734.093 541.061 733.945 541.395 733.649 541.674C733.359 541.952 733.009 542.091 732.601 542.091ZM741.064 549.797V558H738.968V544.364H740.993V546.494H741.17C741.49 545.802 741.975 545.246 742.626 544.825C743.277 544.399 744.118 544.186 745.147 544.186C746.071 544.186 746.879 544.375 747.571 544.754C748.263 545.127 748.802 545.695 749.187 546.459C749.571 547.216 749.764 548.175 749.764 549.335V558H747.669V549.477C747.669 548.406 747.391 547.571 746.834 546.974C746.278 546.37 745.514 546.068 744.544 546.068C743.875 546.068 743.277 546.213 742.75 546.503C742.23 546.793 741.818 547.216 741.516 547.773C741.214 548.329 741.064 549.004 741.064 549.797ZM760.81 558.284C759.496 558.284 758.362 557.994 757.41 557.414C756.463 556.828 755.732 556.011 755.217 554.964C754.708 553.91 754.453 552.685 754.453 551.288C754.453 549.892 754.708 548.661 755.217 547.595C755.732 546.524 756.448 545.689 757.365 545.092C758.288 544.488 759.366 544.186 760.597 544.186C761.307 544.186 762.008 544.304 762.701 544.541C763.393 544.778 764.024 545.163 764.592 545.695C765.16 546.222 765.613 546.92 765.95 547.79C766.287 548.661 766.456 549.732 766.456 551.004V551.892H755.945V550.081H764.325C764.325 549.312 764.171 548.625 763.864 548.021C763.562 547.418 763.13 546.941 762.568 546.592C762.011 546.243 761.354 546.068 760.597 546.068C759.762 546.068 759.04 546.275 758.43 546.69C757.827 547.098 757.362 547.631 757.037 548.288C756.711 548.945 756.548 549.649 756.548 550.401V551.608C756.548 552.638 756.726 553.511 757.081 554.227C757.442 554.937 757.942 555.479 758.581 555.852C759.221 556.219 759.963 556.402 760.81 556.402C761.36 556.402 761.857 556.325 762.301 556.171C762.751 556.011 763.139 555.775 763.464 555.461C763.79 555.141 764.041 554.745 764.219 554.271L766.243 554.839C766.03 555.526 765.672 556.13 765.169 556.651C764.666 557.165 764.044 557.568 763.304 557.858C762.565 558.142 761.733 558.284 760.81 558.284ZM776.861 558.284C775.547 558.284 774.413 557.994 773.46 557.414C772.513 556.828 771.782 556.011 771.267 554.964C770.758 553.91 770.504 552.685 770.504 551.288C770.504 549.892 770.758 548.661 771.267 547.595C771.782 546.524 772.499 545.689 773.416 545.092C774.339 544.488 775.416 544.186 776.647 544.186C777.358 544.186 778.059 544.304 778.752 544.541C779.444 544.778 780.074 545.163 780.642 545.695C781.211 546.222 781.663 546.92 782.001 547.79C782.338 548.661 782.507 549.732 782.507 551.004V551.892H771.995V550.081H780.376C780.376 549.312 780.222 548.625 779.915 548.021C779.613 547.418 779.181 546.941 778.618 546.592C778.062 546.243 777.405 546.068 776.647 546.068C775.813 546.068 775.091 546.275 774.481 546.69C773.878 547.098 773.413 547.631 773.087 548.288C772.762 548.945 772.599 549.649 772.599 550.401V551.608C772.599 552.638 772.777 553.511 773.132 554.227C773.493 554.937 773.993 555.479 774.632 555.852C775.271 556.219 776.014 556.402 776.861 556.402C777.411 556.402 777.908 556.325 778.352 556.171C778.802 556.011 779.189 555.775 779.515 555.461C779.841 555.141 780.092 554.745 780.27 554.271L782.294 554.839C782.081 555.526 781.723 556.13 781.22 556.651C780.716 557.165 780.095 557.568 779.355 557.858C778.615 558.142 777.784 558.284 776.861 558.284ZM787.194 558V544.364H789.218V546.423H789.36C789.609 545.749 790.059 545.201 790.71 544.781C791.361 544.361 792.095 544.151 792.911 544.151C793.065 544.151 793.258 544.154 793.488 544.159C793.719 544.165 793.894 544.174 794.012 544.186V546.317C793.941 546.299 793.778 546.272 793.524 546.237C793.275 546.195 793.012 546.175 792.734 546.175C792.071 546.175 791.479 546.314 790.958 546.592C790.443 546.864 790.035 547.243 789.733 547.728C789.437 548.208 789.289 548.755 789.289 549.371V558H787.194ZM812.955 538.966L807.095 560.734H805.178L811.037 538.966H812.955ZM838.182 545.5C837.987 544.902 837.73 544.367 837.41 543.893C837.096 543.414 836.721 543.005 836.283 542.668C835.851 542.331 835.359 542.073 834.809 541.896C834.258 541.718 833.655 541.629 832.998 541.629C831.921 541.629 830.941 541.907 830.059 542.464C829.177 543.02 828.476 543.84 827.955 544.923C827.434 546.006 827.174 547.335 827.174 548.909C827.174 550.483 827.437 551.812 827.964 552.895C828.491 553.978 829.204 554.798 830.104 555.354C831.003 555.911 832.015 556.189 833.14 556.189C834.181 556.189 835.099 555.967 835.892 555.523C836.691 555.073 837.312 554.44 837.756 553.623C838.206 552.801 838.431 551.833 838.431 550.72L839.106 550.862H833.637V548.909H840.562V550.862C840.562 552.36 840.242 553.662 839.603 554.768C838.97 555.875 838.094 556.733 836.975 557.343C835.862 557.947 834.584 558.249 833.14 558.249C831.53 558.249 830.115 557.87 828.896 557.112C827.683 556.355 826.736 555.277 826.055 553.881C825.381 552.484 825.043 550.827 825.043 548.909C825.043 547.471 825.236 546.178 825.62 545.029C826.011 543.875 826.561 542.893 827.272 542.082C827.982 541.271 828.822 540.65 829.793 540.218C830.764 539.786 831.832 539.57 832.998 539.57C833.957 539.57 834.85 539.715 835.679 540.005C836.513 540.289 837.256 540.694 837.907 541.221C838.564 541.742 839.112 542.366 839.55 543.094C839.988 543.816 840.289 544.618 840.455 545.5H838.182ZM849.561 558.32C848.697 558.32 847.913 558.157 847.209 557.831C846.504 557.5 845.945 557.023 845.531 556.402C845.116 555.775 844.909 555.017 844.909 554.129C844.909 553.348 845.063 552.715 845.371 552.229C845.679 551.738 846.09 551.353 846.605 551.075C847.12 550.797 847.688 550.59 848.309 550.454C848.937 550.312 849.567 550.199 850.2 550.116C851.029 550.01 851.701 549.93 852.216 549.877C852.737 549.818 853.115 549.72 853.352 549.584C853.595 549.448 853.716 549.211 853.716 548.874V548.803C853.716 547.927 853.476 547.246 852.997 546.761C852.523 546.275 851.804 546.033 850.84 546.033C849.839 546.033 849.055 546.252 848.487 546.69C847.919 547.128 847.519 547.595 847.289 548.092L845.3 547.382C845.655 546.554 846.128 545.908 846.72 545.447C847.318 544.979 847.969 544.654 848.673 544.47C849.384 544.281 850.082 544.186 850.769 544.186C851.207 544.186 851.71 544.239 852.278 544.346C852.852 544.446 853.405 544.657 853.938 544.976C854.477 545.296 854.923 545.778 855.279 546.423C855.634 547.068 855.811 547.933 855.811 549.016V558H853.716V556.153H853.61C853.468 556.449 853.231 556.766 852.899 557.103C852.568 557.441 852.127 557.728 851.577 557.964C851.026 558.201 850.354 558.32 849.561 558.32ZM849.881 556.438C850.709 556.438 851.408 556.275 851.976 555.949C852.55 555.624 852.982 555.203 853.272 554.689C853.568 554.174 853.716 553.632 853.716 553.064V551.146C853.627 551.253 853.432 551.35 853.13 551.439C852.834 551.522 852.491 551.596 852.1 551.661C851.716 551.72 851.34 551.774 850.973 551.821C850.612 551.862 850.319 551.898 850.094 551.928C849.549 551.999 849.04 552.114 848.567 552.274C848.099 552.428 847.721 552.661 847.431 552.975C847.146 553.283 847.004 553.703 847.004 554.236C847.004 554.964 847.274 555.514 847.812 555.887C848.357 556.254 849.046 556.438 849.881 556.438ZM861.135 558V544.364H863.16V546.494H863.337C863.621 545.766 864.08 545.201 864.713 544.799C865.346 544.39 866.107 544.186 866.995 544.186C867.894 544.186 868.643 544.39 869.241 544.799C869.845 545.201 870.315 545.766 870.652 546.494H870.794C871.144 545.79 871.667 545.231 872.366 544.816C873.064 544.396 873.902 544.186 874.878 544.186C876.098 544.186 877.095 544.568 877.87 545.331C878.645 546.089 879.033 547.27 879.033 548.874V558H876.938V548.874C876.938 547.867 876.663 547.148 876.112 546.716C875.562 546.284 874.914 546.068 874.168 546.068C873.209 546.068 872.466 546.358 871.94 546.938C871.413 547.512 871.15 548.24 871.15 549.122V558H869.019V548.661C869.019 547.885 868.767 547.261 868.264 546.787C867.761 546.308 867.113 546.068 866.32 546.068C865.776 546.068 865.267 546.213 864.793 546.503C864.325 546.793 863.947 547.196 863.657 547.711C863.373 548.22 863.231 548.808 863.231 549.477V558H861.135ZM890.081 558.284C888.767 558.284 887.634 557.994 886.681 557.414C885.734 556.828 885.003 556.011 884.488 554.964C883.979 553.91 883.725 552.685 883.725 551.288C883.725 549.892 883.979 548.661 884.488 547.595C885.003 546.524 885.719 545.689 886.637 545.092C887.56 544.488 888.637 544.186 889.868 544.186C890.578 544.186 891.28 544.304 891.972 544.541C892.665 544.778 893.295 545.163 893.863 545.695C894.431 546.222 894.884 546.92 895.222 547.79C895.559 548.661 895.728 549.732 895.728 551.004V551.892H885.216V550.081H893.597C893.597 549.312 893.443 548.625 893.135 548.021C892.833 547.418 892.401 546.941 891.839 546.592C891.283 546.243 890.626 546.068 889.868 546.068C889.034 546.068 888.312 546.275 887.702 546.69C887.098 547.098 886.634 547.631 886.308 548.288C885.983 548.945 885.82 549.649 885.82 550.401V551.608C885.82 552.638 885.997 553.511 886.353 554.227C886.714 554.937 887.214 555.479 887.853 555.852C888.492 556.219 889.235 556.402 890.081 556.402C890.632 556.402 891.129 556.325 891.573 556.171C892.023 556.011 892.41 555.775 892.736 555.461C893.061 555.141 893.313 554.745 893.49 554.271L895.514 554.839C895.301 555.526 894.943 556.13 894.44 556.651C893.937 557.165 893.316 557.568 892.576 557.858C891.836 558.142 891.005 558.284 890.081 558.284ZM914.841 558H909.23V539.818H915.089C916.853 539.818 918.362 540.182 919.617 540.91C920.872 541.632 921.834 542.671 922.502 544.026C923.171 545.376 923.506 546.991 923.506 548.874C923.506 550.768 923.168 552.398 922.494 553.765C921.819 555.127 920.836 556.174 919.546 556.908C918.256 557.636 916.687 558 914.841 558ZM911.432 556.047H914.699C916.202 556.047 917.448 555.757 918.436 555.177C919.425 554.597 920.162 553.771 920.647 552.7C921.132 551.629 921.375 550.353 921.375 548.874C921.375 547.406 921.135 546.142 920.656 545.083C920.176 544.017 919.46 543.201 918.507 542.632C917.554 542.058 916.368 541.771 914.947 541.771H911.432V556.047ZM934.132 558.284C932.818 558.284 931.685 557.994 930.732 557.414C929.785 556.828 929.054 556.011 928.539 554.964C928.03 553.91 927.775 552.685 927.775 551.288C927.775 549.892 928.03 548.661 928.539 547.595C929.054 546.524 929.77 545.689 930.687 545.092C931.611 544.488 932.688 544.186 933.919 544.186C934.629 544.186 935.331 544.304 936.023 544.541C936.715 544.778 937.346 545.163 937.914 545.695C938.482 546.222 938.935 546.92 939.272 547.79C939.61 548.661 939.778 549.732 939.778 551.004V551.892H929.267V550.081H937.648C937.648 549.312 937.494 548.625 937.186 548.021C936.884 547.418 936.452 546.941 935.89 546.592C935.333 546.243 934.677 546.068 933.919 546.068C933.084 546.068 932.362 546.275 931.753 546.69C931.149 547.098 930.684 547.631 930.359 548.288C930.033 548.945 929.871 549.649 929.871 550.401V551.608C929.871 552.638 930.048 553.511 930.403 554.227C930.764 554.937 931.264 555.479 931.904 555.852C932.543 556.219 933.286 556.402 934.132 556.402C934.682 556.402 935.18 556.325 935.623 556.171C936.073 556.011 936.461 555.775 936.786 555.461C937.112 555.141 937.364 554.745 937.541 554.271L939.565 554.839C939.352 555.526 938.994 556.13 938.491 556.651C937.988 557.165 937.367 557.568 936.627 557.858C935.887 558.142 935.055 558.284 934.132 558.284ZM955.201 544.364L950.158 558H948.028L942.985 544.364H945.258L949.022 555.23H949.164L952.928 544.364H955.201ZM964.695 558.284C963.382 558.284 962.248 557.994 961.295 557.414C960.348 556.828 959.617 556.011 959.102 554.964C958.593 553.91 958.339 552.685 958.339 551.288C958.339 549.892 958.593 548.661 959.102 547.595C959.617 546.524 960.334 545.689 961.251 545.092C962.174 544.488 963.251 544.186 964.482 544.186C965.193 544.186 965.894 544.304 966.586 544.541C967.279 544.778 967.909 545.163 968.477 545.695C969.046 546.222 969.498 546.92 969.836 547.79C970.173 548.661 970.342 549.732 970.342 551.004V551.892H959.83V550.081H968.211C968.211 549.312 968.057 548.625 967.749 548.021C967.448 547.418 967.016 546.941 966.453 546.592C965.897 546.243 965.24 546.068 964.482 546.068C963.648 546.068 962.926 546.275 962.316 546.69C961.713 547.098 961.248 547.631 960.922 548.288C960.597 548.945 960.434 549.649 960.434 550.401V551.608C960.434 552.638 960.612 553.511 960.967 554.227C961.328 554.937 961.828 555.479 962.467 555.852C963.106 556.219 963.849 556.402 964.695 556.402C965.246 556.402 965.743 556.325 966.187 556.171C966.637 556.011 967.024 555.775 967.35 555.461C967.675 555.141 967.927 554.745 968.105 554.271L970.129 554.839C969.916 555.526 969.558 556.13 969.055 556.651C968.551 557.165 967.93 557.568 967.19 557.858C966.45 558.142 965.619 558.284 964.695 558.284ZM977.124 539.818V558H975.029V539.818H977.124ZM988.001 558.284C986.77 558.284 985.69 557.991 984.761 557.405C983.838 556.819 983.116 556 982.595 554.946C982.08 553.893 981.822 552.661 981.822 551.253C981.822 549.832 982.08 548.592 982.595 547.533C983.116 546.474 983.838 545.651 984.761 545.065C985.69 544.479 986.77 544.186 988.001 544.186C989.232 544.186 990.31 544.479 991.233 545.065C992.162 545.651 992.884 546.474 993.399 547.533C993.92 548.592 994.18 549.832 994.18 551.253C994.18 552.661 993.92 553.893 993.399 554.946C992.884 556 992.162 556.819 991.233 557.405C990.31 557.991 989.232 558.284 988.001 558.284ZM988.001 556.402C988.936 556.402 989.706 556.162 990.31 555.683C990.913 555.203 991.36 554.573 991.65 553.792C991.94 553.011 992.085 552.164 992.085 551.253C992.085 550.341 991.94 549.492 991.65 548.705C991.36 547.918 990.913 547.281 990.31 546.796C989.706 546.311 988.936 546.068 988.001 546.068C987.066 546.068 986.297 546.311 985.693 546.796C985.089 547.281 984.643 547.918 984.353 548.705C984.063 549.492 983.918 550.341 983.918 551.253C983.918 552.164 984.063 553.011 984.353 553.792C984.643 554.573 985.089 555.203 985.693 555.683C986.297 556.162 987.066 556.402 988.001 556.402ZM998.879 563.114V544.364H1000.9V546.53H1001.15C1001.31 546.293 1001.52 545.991 1001.79 545.624C1002.07 545.251 1002.47 544.92 1002.98 544.63C1003.5 544.334 1004.21 544.186 1005.09 544.186C1006.24 544.186 1007.25 544.473 1008.13 545.047C1009.01 545.621 1009.69 546.435 1010.18 547.489C1010.67 548.542 1010.92 549.785 1010.92 551.217C1010.92 552.661 1010.67 553.913 1010.18 554.973C1009.69 556.026 1009.01 556.843 1008.14 557.423C1007.27 557.997 1006.26 558.284 1005.13 558.284C1004.25 558.284 1003.55 558.139 1003.02 557.849C1002.5 557.553 1002.09 557.219 1001.81 556.846C1001.52 556.467 1001.31 556.153 1001.15 555.905H1000.97V563.114H998.879ZM1000.94 551.182C1000.94 552.212 1001.09 553.12 1001.39 553.907C1001.69 554.689 1002.13 555.301 1002.71 555.745C1003.29 556.183 1004 556.402 1004.84 556.402C1005.72 556.402 1006.45 556.171 1007.04 555.71C1007.63 555.242 1008.07 554.615 1008.37 553.827C1008.67 553.034 1008.82 552.152 1008.82 551.182C1008.82 550.223 1008.67 549.359 1008.38 548.589C1008.09 547.814 1007.65 547.202 1007.06 546.752C1006.47 546.296 1005.73 546.068 1004.84 546.068C1003.99 546.068 1003.28 546.284 1002.7 546.716C1002.12 547.142 1001.68 547.74 1001.38 548.51C1001.09 549.273 1000.94 550.164 1000.94 551.182ZM1021.33 558.284C1020.02 558.284 1018.88 557.994 1017.93 557.414C1016.98 556.828 1016.25 556.011 1015.74 554.964C1015.23 553.91 1014.97 552.685 1014.97 551.288C1014.97 549.892 1015.23 548.661 1015.74 547.595C1016.25 546.524 1016.97 545.689 1017.89 545.092C1018.81 544.488 1019.89 544.186 1021.12 544.186C1021.83 544.186 1022.53 544.304 1023.22 544.541C1023.91 544.778 1024.54 545.163 1025.11 545.695C1025.68 546.222 1026.13 546.92 1026.47 547.79C1026.81 548.661 1026.98 549.732 1026.98 551.004V551.892H1016.47V550.081H1024.85C1024.85 549.312 1024.69 548.625 1024.38 548.021C1024.08 547.418 1023.65 546.941 1023.09 546.592C1022.53 546.243 1021.87 546.068 1021.12 546.068C1020.28 546.068 1019.56 546.275 1018.95 546.69C1018.35 547.098 1017.88 547.631 1017.56 548.288C1017.23 548.945 1017.07 549.649 1017.07 550.401V551.608C1017.07 552.638 1017.25 553.511 1017.6 554.227C1017.96 554.937 1018.46 555.479 1019.1 555.852C1019.74 556.219 1020.48 556.402 1021.33 556.402C1021.88 556.402 1022.38 556.325 1022.82 556.171C1023.27 556.011 1023.66 555.775 1023.98 555.461C1024.31 555.141 1024.56 554.745 1024.74 554.271L1026.76 554.839C1026.55 555.526 1026.19 556.13 1025.69 556.651C1025.19 557.165 1024.56 557.568 1023.82 557.858C1023.09 558.142 1022.25 558.284 1021.33 558.284ZM1031.66 558V544.364H1033.69V546.423H1033.83C1034.08 545.749 1034.53 545.201 1035.18 544.781C1035.83 544.361 1036.56 544.151 1037.38 544.151C1037.53 544.151 1037.73 544.154 1037.96 544.159C1038.19 544.165 1038.36 544.174 1038.48 544.186V546.317C1038.41 546.299 1038.25 546.272 1037.99 546.237C1037.75 546.195 1037.48 546.175 1037.2 546.175C1036.54 546.175 1035.95 546.314 1035.43 546.592C1034.91 546.864 1034.5 547.243 1034.2 547.728C1033.91 548.208 1033.76 548.755 1033.76 549.371V558H1031.66ZM1057.42 538.966L1051.56 560.734H1049.65L1055.51 538.966H1057.42ZM1070.22 558V539.818H1076.37C1077.79 539.818 1078.96 540.076 1079.86 540.591C1080.78 541.1 1081.45 541.789 1081.89 542.659C1082.33 543.529 1082.55 544.5 1082.55 545.571C1082.55 546.642 1082.33 547.616 1081.89 548.492C1081.46 549.368 1080.79 550.066 1079.88 550.587C1078.98 551.102 1077.82 551.359 1076.4 551.359H1072V549.406H1076.33C1077.31 549.406 1078.09 549.238 1078.68 548.9C1079.28 548.563 1079.7 548.107 1079.97 547.533C1080.24 546.953 1080.38 546.299 1080.38 545.571C1080.38 544.843 1080.24 544.192 1079.97 543.618C1079.7 543.044 1079.27 542.594 1078.67 542.268C1078.08 541.937 1077.28 541.771 1076.3 541.771H1072.42V558H1070.22ZM1087.31 558V544.364H1089.33V546.423H1089.47C1089.72 545.749 1090.17 545.201 1090.82 544.781C1091.47 544.361 1092.21 544.151 1093.03 544.151C1093.18 544.151 1093.37 544.154 1093.6 544.159C1093.83 544.165 1094.01 544.174 1094.13 544.186V546.317C1094.06 546.299 1093.89 546.272 1093.64 546.237C1093.39 546.195 1093.13 546.175 1092.85 546.175C1092.19 546.175 1091.59 546.314 1091.07 546.592C1090.56 546.864 1090.15 547.243 1089.85 547.728C1089.55 548.208 1089.4 548.755 1089.4 549.371V558H1087.31ZM1103.23 558.284C1102 558.284 1100.92 557.991 1099.99 557.405C1099.07 556.819 1098.35 556 1097.83 554.946C1097.31 553.893 1097.06 552.661 1097.06 551.253C1097.06 549.832 1097.31 548.592 1097.83 547.533C1098.35 546.474 1099.07 545.651 1099.99 545.065C1100.92 544.479 1102 544.186 1103.23 544.186C1104.47 544.186 1105.54 544.479 1106.47 545.065C1107.4 545.651 1108.12 546.474 1108.63 547.533C1109.15 548.592 1109.41 549.832 1109.41 551.253C1109.41 552.661 1109.15 553.893 1108.63 554.946C1108.12 556 1107.4 556.819 1106.47 557.405C1105.54 557.991 1104.47 558.284 1103.23 558.284ZM1103.23 556.402C1104.17 556.402 1104.94 556.162 1105.54 555.683C1106.15 555.203 1106.59 554.573 1106.88 553.792C1107.17 553.011 1107.32 552.164 1107.32 551.253C1107.32 550.341 1107.17 549.492 1106.88 548.705C1106.59 547.918 1106.15 547.281 1105.54 546.796C1104.94 546.311 1104.17 546.068 1103.23 546.068C1102.3 546.068 1101.53 546.311 1100.93 546.796C1100.32 547.281 1099.88 547.918 1099.59 548.705C1099.3 549.492 1099.15 550.341 1099.15 551.253C1099.15 552.164 1099.3 553.011 1099.59 553.792C1099.88 554.573 1100.32 555.203 1100.93 555.683C1101.53 556.162 1102.3 556.402 1103.23 556.402ZM1119.26 558.284C1118.12 558.284 1117.12 557.997 1116.25 557.423C1115.38 556.843 1114.7 556.026 1114.21 554.973C1113.72 553.913 1113.47 552.661 1113.47 551.217C1113.47 549.785 1113.72 548.542 1114.21 547.489C1114.7 546.435 1115.38 545.621 1116.26 545.047C1117.14 544.473 1118.15 544.186 1119.3 544.186C1120.18 544.186 1120.89 544.334 1121.4 544.63C1121.92 544.92 1122.32 545.251 1122.59 545.624C1122.87 545.991 1123.08 546.293 1123.24 546.53H1123.42V539.818H1125.51V558H1123.49V555.905H1123.24C1123.08 556.153 1122.87 556.467 1122.58 556.846C1122.3 557.219 1121.89 557.553 1121.37 557.849C1120.84 558.139 1120.14 558.284 1119.26 558.284ZM1119.55 556.402C1120.39 556.402 1121.1 556.183 1121.68 555.745C1122.26 555.301 1122.7 554.689 1123 553.907C1123.3 553.12 1123.45 552.212 1123.45 551.182C1123.45 550.164 1123.3 549.273 1123.01 548.51C1122.71 547.74 1122.27 547.142 1121.69 546.716C1121.11 546.284 1120.4 546.068 1119.55 546.068C1118.66 546.068 1117.92 546.296 1117.33 546.752C1116.74 547.202 1116.3 547.814 1116 548.589C1115.71 549.359 1115.57 550.223 1115.57 551.182C1115.57 552.152 1115.72 553.034 1116.01 553.827C1116.31 554.615 1116.76 555.242 1117.34 555.71C1117.94 556.171 1118.67 556.402 1119.55 556.402ZM1139.73 552.425V544.364H1141.83V558H1139.73V555.692H1139.59C1139.27 556.384 1138.77 556.973 1138.1 557.458C1137.42 557.938 1136.57 558.178 1135.54 558.178C1134.69 558.178 1133.93 557.991 1133.27 557.618C1132.61 557.239 1132.09 556.671 1131.71 555.914C1131.33 555.15 1131.14 554.188 1131.14 553.028V544.364H1133.23V552.886C1133.23 553.881 1133.51 554.674 1134.07 555.266C1134.63 555.857 1135.35 556.153 1136.22 556.153C1136.74 556.153 1137.27 556.02 1137.81 555.754C1138.35 555.488 1138.81 555.079 1139.17 554.529C1139.55 553.978 1139.73 553.277 1139.73 552.425ZM1152.71 558.284C1151.43 558.284 1150.33 557.982 1149.4 557.379C1148.48 556.775 1147.77 555.943 1147.27 554.884C1146.78 553.824 1146.53 552.614 1146.53 551.253C1146.53 549.868 1146.78 548.646 1147.29 547.586C1147.8 546.521 1148.52 545.689 1149.44 545.092C1150.36 544.488 1151.44 544.186 1152.67 544.186C1153.63 544.186 1154.49 544.364 1155.26 544.719C1156.03 545.074 1156.66 545.571 1157.15 546.21C1157.64 546.849 1157.95 547.595 1158.07 548.447H1155.97C1155.81 547.826 1155.46 547.276 1154.91 546.796C1154.36 546.311 1153.63 546.068 1152.71 546.068C1151.89 546.068 1151.17 546.281 1150.56 546.707C1149.95 547.128 1149.47 547.722 1149.13 548.492C1148.79 549.255 1148.62 550.152 1148.62 551.182C1148.62 552.235 1148.79 553.153 1149.12 553.934C1149.46 554.715 1149.93 555.322 1150.54 555.754C1151.15 556.186 1151.88 556.402 1152.71 556.402C1153.25 556.402 1153.74 556.307 1154.19 556.118C1154.63 555.929 1155.01 555.656 1155.32 555.301C1155.62 554.946 1155.84 554.52 1155.97 554.023H1158.07C1157.95 554.828 1157.66 555.553 1157.19 556.198C1156.73 556.837 1156.11 557.346 1155.35 557.725C1154.59 558.098 1153.71 558.284 1152.71 558.284ZM1168.56 544.364V546.139H1161.49V544.364H1168.56ZM1163.55 541.097H1165.65V554.094C1165.65 554.686 1165.73 555.129 1165.91 555.425C1166.08 555.715 1166.31 555.911 1166.58 556.011C1166.86 556.106 1167.15 556.153 1167.46 556.153C1167.69 556.153 1167.88 556.142 1168.03 556.118C1168.18 556.088 1168.29 556.065 1168.38 556.047L1168.81 557.929C1168.67 557.982 1168.47 558.036 1168.21 558.089C1167.96 558.148 1167.64 558.178 1167.25 558.178C1166.66 558.178 1166.08 558.05 1165.51 557.796C1164.94 557.541 1164.48 557.154 1164.1 556.633C1163.74 556.112 1163.55 555.455 1163.55 554.662V541.097ZM1182.03 558V539.818H1188.38C1189.65 539.818 1190.7 540.037 1191.52 540.475C1192.34 540.907 1192.95 541.49 1193.36 542.224C1193.76 542.952 1193.96 543.76 1193.96 544.648C1193.96 545.429 1193.82 546.074 1193.54 546.583C1193.27 547.092 1192.91 547.495 1192.46 547.79C1192.02 548.086 1191.53 548.305 1191.01 548.447V548.625C1191.57 548.661 1192.13 548.856 1192.69 549.211C1193.25 549.566 1193.72 550.075 1194.1 550.738C1194.48 551.401 1194.67 552.212 1194.67 553.17C1194.67 554.082 1194.46 554.902 1194.05 555.63C1193.63 556.358 1192.98 556.935 1192.09 557.361C1191.19 557.787 1190.03 558 1188.6 558H1182.03ZM1184.23 556.047H1188.6C1190.04 556.047 1191.06 555.769 1191.66 555.212C1192.27 554.65 1192.57 553.969 1192.57 553.17C1192.57 552.555 1192.42 551.987 1192.1 551.466C1191.79 550.939 1191.34 550.519 1190.76 550.205C1190.18 549.886 1189.5 549.726 1188.7 549.726H1184.23V556.047ZM1184.23 547.808H1188.31C1188.98 547.808 1189.57 547.678 1190.11 547.418C1190.65 547.157 1191.07 546.79 1191.39 546.317C1191.7 545.843 1191.86 545.287 1191.86 544.648C1191.86 543.849 1191.59 543.171 1191.03 542.615C1190.47 542.052 1189.59 541.771 1188.38 541.771H1184.23V547.808ZM1208.1 552.425V544.364H1210.19V558H1208.1V555.692H1207.96C1207.64 556.384 1207.14 556.973 1206.46 557.458C1205.79 557.938 1204.94 558.178 1203.91 558.178C1203.05 558.178 1202.3 557.991 1201.63 557.618C1200.97 557.239 1200.45 556.671 1200.07 555.914C1199.69 555.15 1199.5 554.188 1199.5 553.028V544.364H1201.6V552.886C1201.6 553.881 1201.88 554.674 1202.43 555.266C1203 555.857 1203.71 556.153 1204.58 556.153C1205.1 556.153 1205.63 556.02 1206.17 555.754C1206.72 555.488 1207.17 555.079 1207.54 554.529C1207.91 553.978 1208.1 553.277 1208.1 552.425ZM1215.53 558V544.364H1217.63V558H1215.53ZM1216.6 542.091C1216.19 542.091 1215.83 541.952 1215.54 541.674C1215.25 541.395 1215.1 541.061 1215.1 540.67C1215.1 540.28 1215.25 539.945 1215.54 539.667C1215.83 539.389 1216.19 539.25 1216.6 539.25C1217 539.25 1217.35 539.389 1217.64 539.667C1217.94 539.945 1218.09 540.28 1218.09 540.67C1218.09 541.061 1217.94 541.395 1217.64 541.674C1217.35 541.952 1217 542.091 1216.6 542.091ZM1225.06 539.818V558H1222.96V539.818H1225.06ZM1235.54 558.284C1234.41 558.284 1233.4 557.997 1232.53 557.423C1231.66 556.843 1230.98 556.026 1230.49 554.973C1230 553.913 1229.76 552.661 1229.76 551.217C1229.76 549.785 1230 548.542 1230.49 547.489C1230.98 546.435 1231.67 545.621 1232.54 545.047C1233.42 544.473 1234.43 544.186 1235.58 544.186C1236.47 544.186 1237.17 544.334 1237.68 544.63C1238.2 544.92 1238.6 545.251 1238.87 545.624C1239.15 545.991 1239.37 546.293 1239.52 546.53H1239.7V539.818H1241.79V558H1239.77V555.905H1239.52C1239.37 556.153 1239.15 556.467 1238.86 556.846C1238.58 557.219 1238.18 557.553 1237.65 557.849C1237.12 558.139 1236.42 558.284 1235.54 558.284ZM1235.83 556.402C1236.67 556.402 1237.38 556.183 1237.96 555.745C1238.54 555.301 1238.98 554.689 1239.28 553.907C1239.58 553.12 1239.73 552.212 1239.73 551.182C1239.73 550.164 1239.59 549.273 1239.29 548.51C1238.99 547.74 1238.56 547.142 1237.98 546.716C1237.4 546.284 1236.68 546.068 1235.83 546.068C1234.94 546.068 1234.2 546.296 1233.61 546.752C1233.02 547.202 1232.58 547.814 1232.29 548.589C1232 549.359 1231.85 550.223 1231.85 551.182C1231.85 552.152 1232 553.034 1232.3 553.827C1232.6 554.615 1233.04 555.242 1233.63 555.71C1234.22 556.171 1234.95 556.402 1235.83 556.402ZM1253.14 558.284C1251.83 558.284 1250.69 557.994 1249.74 557.414C1248.79 556.828 1248.06 556.011 1247.55 554.964C1247.04 553.91 1246.78 552.685 1246.78 551.288C1246.78 549.892 1247.04 548.661 1247.55 547.595C1248.06 546.524 1248.78 545.689 1249.7 545.092C1250.62 544.488 1251.7 544.186 1252.93 544.186C1253.64 544.186 1254.34 544.304 1255.03 544.541C1255.72 544.778 1256.35 545.163 1256.92 545.695C1257.49 546.222 1257.94 546.92 1258.28 547.79C1258.62 548.661 1258.79 549.732 1258.79 551.004V551.892H1248.27V550.081H1256.66C1256.66 549.312 1256.5 548.625 1256.19 548.021C1255.89 547.418 1255.46 546.941 1254.9 546.592C1254.34 546.243 1253.68 546.068 1252.93 546.068C1252.09 546.068 1251.37 546.275 1250.76 546.69C1250.16 547.098 1249.69 547.631 1249.37 548.288C1249.04 548.945 1248.88 549.649 1248.88 550.401V551.608C1248.88 552.638 1249.06 553.511 1249.41 554.227C1249.77 554.937 1250.27 555.479 1250.91 555.852C1251.55 556.219 1252.29 556.402 1253.14 556.402C1253.69 556.402 1254.19 556.325 1254.63 556.171C1255.08 556.011 1255.47 555.775 1255.79 555.461C1256.12 555.141 1256.37 554.745 1256.55 554.271L1258.57 554.839C1258.36 555.526 1258 556.13 1257.5 556.651C1257 557.165 1256.37 557.568 1255.63 557.858C1254.89 558.142 1254.06 558.284 1253.14 558.284ZM1263.47 558V544.364H1265.5V546.423H1265.64C1265.89 545.749 1266.34 545.201 1266.99 544.781C1267.64 544.361 1268.37 544.151 1269.19 544.151C1269.34 544.151 1269.54 544.154 1269.77 544.159C1270 544.165 1270.17 544.174 1270.29 544.186V546.317C1270.22 546.299 1270.06 546.272 1269.8 546.237C1269.55 546.195 1269.29 546.175 1269.01 546.175C1268.35 546.175 1267.76 546.314 1267.24 546.592C1266.72 546.864 1266.31 547.243 1266.01 547.728C1265.72 548.208 1265.57 548.755 1265.57 549.371V558H1263.47Z" fill="white"/>
<path d="M846.753 398.302C845.889 398.302 845.107 398.142 844.409 397.822C843.711 397.497 843.157 397.026 842.749 396.411C842.346 395.795 842.145 395.041 842.145 394.147C842.145 393.378 842.293 392.744 842.589 392.247C842.885 391.75 843.285 391.356 843.788 391.066C844.291 390.776 844.853 390.557 845.474 390.409C846.096 390.261 846.729 390.149 847.374 390.072C848.191 389.977 848.854 389.9 849.363 389.841C849.872 389.776 850.242 389.673 850.473 389.531C850.703 389.388 850.819 389.158 850.819 388.838V388.776C850.819 388.001 850.6 387.4 850.162 386.974C849.73 386.548 849.085 386.335 848.227 386.335C847.333 386.335 846.629 386.533 846.114 386.929C845.605 387.32 845.252 387.755 845.057 388.234L842.562 387.666C842.858 386.838 843.29 386.169 843.859 385.66C844.433 385.145 845.093 384.772 845.838 384.541C846.584 384.304 847.368 384.186 848.191 384.186C848.736 384.186 849.313 384.251 849.922 384.381C850.538 384.506 851.112 384.737 851.645 385.074C852.183 385.411 852.624 385.894 852.967 386.521C853.311 387.142 853.482 387.95 853.482 388.945V398H850.89V396.136H850.783C850.612 396.479 850.354 396.816 850.011 397.148C849.668 397.479 849.227 397.754 848.688 397.973C848.15 398.192 847.504 398.302 846.753 398.302ZM847.33 396.171C848.064 396.171 848.691 396.026 849.212 395.736C849.739 395.446 850.138 395.067 850.411 394.6C850.689 394.126 850.828 393.62 850.828 393.082V391.324C850.733 391.419 850.55 391.507 850.277 391.59C850.011 391.667 849.706 391.735 849.363 391.794C849.02 391.848 848.685 391.898 848.36 391.945C848.034 391.987 847.762 392.022 847.543 392.052C847.028 392.117 846.558 392.226 846.131 392.38C845.711 392.534 845.374 392.756 845.119 393.046C844.871 393.33 844.746 393.709 844.746 394.183C844.746 394.839 844.989 395.337 845.474 395.674C845.96 396.005 846.578 396.171 847.33 396.171ZM861.172 389.903V398H858.518V384.364H861.066V386.583H861.234C861.548 385.861 862.039 385.281 862.708 384.843C863.383 384.405 864.232 384.186 865.256 384.186C866.185 384.186 866.999 384.381 867.698 384.772C868.396 385.157 868.937 385.731 869.322 386.494C869.707 387.258 869.899 388.202 869.899 389.326V398H867.245V389.646C867.245 388.658 866.987 387.885 866.472 387.329C865.957 386.767 865.25 386.485 864.351 386.485C863.735 386.485 863.188 386.619 862.708 386.885C862.235 387.151 861.859 387.542 861.581 388.057C861.308 388.566 861.172 389.181 861.172 389.903ZM874.959 398V384.364H877.614V398H874.959ZM876.3 382.26C875.838 382.26 875.442 382.106 875.11 381.798C874.785 381.484 874.622 381.111 874.622 380.679C874.622 380.241 874.785 379.868 875.11 379.561C875.442 379.247 875.838 379.09 876.3 379.09C876.761 379.09 877.155 379.247 877.481 379.561C877.812 379.868 877.978 380.241 877.978 380.679C877.978 381.111 877.812 381.484 877.481 381.798C877.155 382.106 876.761 382.26 876.3 382.26ZM892.903 387.693L890.497 388.119C890.397 387.811 890.237 387.518 890.018 387.24C889.805 386.962 889.515 386.734 889.148 386.556C888.781 386.379 888.322 386.29 887.772 386.29C887.02 386.29 886.393 386.459 885.89 386.796C885.387 387.128 885.135 387.557 885.135 388.083C885.135 388.539 885.304 388.906 885.641 389.184C885.979 389.462 886.523 389.69 887.275 389.868L889.441 390.365C890.696 390.655 891.631 391.102 892.246 391.706C892.862 392.309 893.17 393.094 893.17 394.058C893.17 394.875 892.933 395.603 892.459 396.242C891.992 396.875 891.338 397.373 890.497 397.734C889.663 398.095 888.695 398.275 887.594 398.275C886.067 398.275 884.821 397.95 883.857 397.299C882.892 396.642 882.3 395.71 882.081 394.502L884.647 394.112C884.807 394.78 885.135 395.286 885.632 395.63C886.129 395.967 886.778 396.136 887.577 396.136C888.447 396.136 889.142 395.955 889.663 395.594C890.184 395.227 890.444 394.78 890.444 394.254C890.444 393.827 890.284 393.469 889.965 393.179C889.651 392.889 889.169 392.67 888.518 392.522L886.209 392.016C884.937 391.726 883.996 391.265 883.386 390.631C882.782 389.998 882.481 389.196 882.481 388.225C882.481 387.421 882.706 386.716 883.155 386.113C883.605 385.509 884.227 385.038 885.02 384.701C885.813 384.358 886.721 384.186 887.745 384.186C889.219 384.186 890.379 384.506 891.225 385.145C892.072 385.778 892.631 386.627 892.903 387.693ZM897.588 398V384.364H900.243V398H897.588ZM898.929 382.26C898.467 382.26 898.071 382.106 897.739 381.798C897.414 381.484 897.251 381.111 897.251 380.679C897.251 380.241 897.414 379.868 897.739 379.561C898.071 379.247 898.467 379.09 898.929 379.09C899.39 379.09 899.784 379.247 900.109 379.561C900.441 379.868 900.607 380.241 900.607 380.679C900.607 381.111 900.441 381.484 900.109 381.798C899.784 382.106 899.39 382.26 898.929 382.26ZM911.058 398.275C909.779 398.275 908.664 397.982 907.711 397.396C906.758 396.81 906.018 395.991 905.491 394.937C904.965 393.884 904.701 392.653 904.701 391.244C904.701 389.829 904.965 388.592 905.491 387.533C906.018 386.474 906.758 385.651 907.711 385.065C908.664 384.479 909.779 384.186 911.058 384.186C912.336 384.186 913.452 384.479 914.405 385.065C915.358 385.651 916.097 386.474 916.624 387.533C917.151 388.592 917.414 389.829 917.414 391.244C917.414 392.653 917.151 393.884 916.624 394.937C916.097 395.991 915.358 396.81 914.405 397.396C913.452 397.982 912.336 398.275 911.058 398.275ZM911.067 396.047C911.895 396.047 912.582 395.828 913.126 395.39C913.671 394.952 914.073 394.369 914.334 393.641C914.6 392.913 914.733 392.111 914.733 391.235C914.733 390.365 914.6 389.566 914.334 388.838C914.073 388.104 913.671 387.515 913.126 387.071C912.582 386.627 911.895 386.406 911.067 386.406C910.232 386.406 909.54 386.627 908.989 387.071C908.445 387.515 908.039 388.104 907.773 388.838C907.512 389.566 907.382 390.365 907.382 391.235C907.382 392.111 907.512 392.913 907.773 393.641C908.039 394.369 908.445 394.952 908.989 395.39C909.54 395.828 910.232 396.047 911.067 396.047ZM927.621 398.275C926.301 398.275 925.165 397.976 924.212 397.379C923.265 396.775 922.537 395.943 922.028 394.884C921.519 393.824 921.265 392.611 921.265 391.244C921.265 389.859 921.525 388.637 922.046 387.577C922.567 386.512 923.301 385.681 924.248 385.083C925.195 384.485 926.31 384.186 927.595 384.186C928.63 384.186 929.554 384.378 930.364 384.763C931.175 385.142 931.829 385.675 932.326 386.361C932.83 387.048 933.128 387.85 933.223 388.767H930.64C930.498 388.128 930.172 387.577 929.663 387.116C929.16 386.654 928.485 386.423 927.639 386.423C926.899 386.423 926.251 386.619 925.695 387.009C925.144 387.394 924.715 387.944 924.407 388.661C924.1 389.371 923.946 390.211 923.946 391.182C923.946 392.176 924.097 393.034 924.399 393.756C924.7 394.478 925.127 395.038 925.677 395.434C926.233 395.831 926.887 396.029 927.639 396.029C928.142 396.029 928.598 395.937 929.006 395.754C929.42 395.565 929.767 395.295 930.045 394.946C930.329 394.597 930.527 394.177 930.64 393.685H933.223C933.128 394.567 932.841 395.354 932.362 396.047C931.883 396.739 931.24 397.284 930.435 397.68C929.636 398.077 928.698 398.275 927.621 398.275ZM943.306 398.275C942.027 398.275 940.912 397.982 939.959 397.396C939.006 396.81 938.266 395.991 937.739 394.937C937.213 393.884 936.949 392.653 936.949 391.244C936.949 389.829 937.213 388.592 937.739 387.533C938.266 386.474 939.006 385.651 939.959 385.065C940.912 384.479 942.027 384.186 943.306 384.186C944.584 384.186 945.7 384.479 946.653 385.065C947.606 385.651 948.345 386.474 948.872 387.533C949.399 388.592 949.662 389.829 949.662 391.244C949.662 392.653 949.399 393.884 948.872 394.937C948.345 395.991 947.606 396.81 946.653 397.396C945.7 397.982 944.584 398.275 943.306 398.275ZM943.315 396.047C944.143 396.047 944.83 395.828 945.374 395.39C945.919 394.952 946.321 394.369 946.582 393.641C946.848 392.913 946.981 392.111 946.981 391.235C946.981 390.365 946.848 389.566 946.582 388.838C946.321 388.104 945.919 387.515 945.374 387.071C944.83 386.627 944.143 386.406 943.315 386.406C942.48 386.406 941.788 386.627 941.237 387.071C940.693 387.515 940.287 388.104 940.021 388.838C939.761 389.566 939.63 390.365 939.63 391.235C939.63 392.111 939.761 392.913 940.021 393.641C940.287 394.369 940.693 394.952 941.237 395.39C941.788 395.828 942.48 396.047 943.315 396.047ZM959.23 398.266C958.129 398.266 957.147 397.985 956.283 397.423C955.424 396.855 954.75 396.047 954.258 394.999C953.773 393.946 953.53 392.682 953.53 391.208C953.53 389.735 953.776 388.474 954.267 387.426C954.764 386.379 955.445 385.577 956.309 385.021C957.173 384.464 958.153 384.186 959.248 384.186C960.094 384.186 960.775 384.328 961.29 384.612C961.811 384.89 962.213 385.216 962.497 385.589C962.787 385.962 963.012 386.29 963.172 386.574H963.332V379.818H965.986V398H963.394V395.878H963.172C963.012 396.168 962.781 396.5 962.479 396.873C962.183 397.245 961.775 397.571 961.254 397.849C960.733 398.127 960.059 398.266 959.23 398.266ZM959.816 396.002C960.579 396.002 961.225 395.801 961.751 395.399C962.284 394.99 962.686 394.425 962.959 393.703C963.237 392.981 963.376 392.141 963.376 391.182C963.376 390.235 963.24 389.406 962.968 388.696C962.695 387.986 962.296 387.432 961.769 387.036C961.242 386.639 960.591 386.441 959.816 386.441C959.017 386.441 958.351 386.648 957.818 387.062C957.286 387.477 956.883 388.042 956.611 388.758C956.345 389.474 956.212 390.282 956.212 391.182C956.212 392.093 956.348 392.913 956.62 393.641C956.892 394.369 957.295 394.946 957.827 395.372C958.366 395.792 959.029 396.002 959.816 396.002ZM977.152 398.275C975.808 398.275 974.651 397.988 973.681 397.414C972.716 396.834 971.97 396.02 971.443 394.973C970.923 393.919 970.662 392.685 970.662 391.271C970.662 389.874 970.923 388.643 971.443 387.577C971.97 386.512 972.704 385.681 973.645 385.083C974.592 384.485 975.699 384.186 976.965 384.186C977.735 384.186 978.481 384.313 979.203 384.568C979.925 384.822 980.573 385.222 981.147 385.766C981.721 386.311 982.174 387.018 982.505 387.888C982.837 388.752 983.002 389.803 983.002 391.04V391.981H972.162V389.992H980.401C980.401 389.294 980.259 388.675 979.975 388.137C979.691 387.592 979.291 387.163 978.776 386.849C978.267 386.536 977.67 386.379 976.983 386.379C976.237 386.379 975.586 386.562 975.03 386.929C974.48 387.29 974.053 387.764 973.752 388.35C973.456 388.93 973.308 389.56 973.308 390.241V391.794C973.308 392.706 973.468 393.481 973.787 394.12C974.113 394.76 974.565 395.248 975.145 395.585C975.725 395.917 976.403 396.082 977.178 396.082C977.682 396.082 978.14 396.011 978.555 395.869C978.969 395.721 979.327 395.502 979.629 395.212C979.931 394.922 980.161 394.564 980.321 394.138L982.834 394.591C982.632 395.331 982.271 395.979 981.751 396.535C981.236 397.086 980.588 397.515 979.806 397.822C979.031 398.124 978.146 398.275 977.152 398.275Z" fill="white"/>
<defs>
<filter id="filter0_f_63_6" x="600.427" y="403.226" width="621.092" height="142.137" filterUnits="userSpaceOnUse" color-interpolation-filters="sRGB">
<feFlood flood-opacity="0" result="BackgroundImageFix"/>
<feBlend mode="normal" in="SourceGraphic" in2="BackgroundImageFix" result="shape"/>
<feGaussianBlur stdDeviation="19.75" result="effect1_foregroundBlur_63_6"/>
</filter>
</defs>
</svg>
